<svg width="15" height="16" viewBox="0 0 15 16" fill="none" xmlns="http://www.w3.org/2000/svg">
<path d="M7.5 0.575439C3.36462 0.575439 0 3.94005 0 8.07544C0 12.2108 3.36462 15.5754 7.5 15.5754C11.6354 15.5754 15 12.2108 15 8.07544C15 3.94005 11.6354 0.575439 7.5 0.575439ZM7.5 1.72929C10.999 1.72929 13.8462 4.5764 13.8462 8.07544C13.8462 11.5745 10.999 14.4216 7.5 14.4216C4.55278 14.4216 2.07609 12.399 1.36569 9.67099L3.48069 10.5769C3.57805 11.4406 4.30264 12.1139 5.19231 12.1139C6.14827 12.1139 6.92308 11.3391 6.92308 10.3831C6.92308 10.3647 6.91802 10.3469 6.91744 10.329L9.32767 8.64335C10.5565 8.59142 11.5385 7.58621 11.5385 6.34467C11.5385 5.07025 10.5052 4.03698 9.23077 4.03698C7.98923 4.03698 6.98456 5.01892 6.93322 6.24777L5.24639 8.658C5.22793 8.65742 5.21077 8.65236 5.19231 8.65236C4.80963 8.65236 4.45909 8.78017 4.17255 8.9904L1.173 7.70472C1.36665 4.37849 4.1261 1.72929 7.5 1.72929ZM9.23077 4.6139C10.1867 4.6139 10.9615 5.38871 10.9615 6.34467C10.9615 7.30063 10.1867 8.07544 9.23077 8.07544C8.27481 8.07544 7.5 7.30063 7.5 6.34467C7.5 5.38871 8.27481 4.6139 9.23077 4.6139ZM9.23077 5.19082C8.92475 5.19082 8.63126 5.31239 8.41488 5.52878C8.19849 5.74517 8.07692 6.03865 8.07692 6.34467C8.07692 6.65069 8.19849 6.94417 8.41488 7.16056C8.63126 7.37695 8.92475 7.49852 9.23077 7.49852C9.53679 7.49852 9.83027 7.37695 10.0467 7.16056C10.263 6.94417 10.3846 6.65069 10.3846 6.34467C10.3846 6.03865 10.263 5.74517 10.0467 5.52878C9.83027 5.31239 9.53679 5.19082 9.23077 5.19082ZM5.19231 9.22929C5.82981 9.22929 6.34615 9.74563 6.34615 10.3831C6.34615 11.0206 5.82981 11.537 5.19231 11.537C4.7257 11.537 4.32622 11.2592 4.14438 10.8609L4.59623 11.0547C4.707 11.1026 4.82287 11.1257 4.93652 11.1257C5.27229 11.1257 5.5924 10.9289 5.73317 10.6006C5.92125 10.1616 5.71756 9.65286 5.27795 9.46479L4.85765 9.2845C4.96427 9.25201 5.07503 9.22929 5.19231 9.22929Z" fill="black"/>
</svg>
