<svg  width="24" height="24" viewBox="0 0 20 20" fill="none" xmlns="http://www.w3.org/2000/svg">
  <path d="M14.6448 9.7215C14.5939 9.60132 14.5166 9.49414 14.4186 9.40793C14.3206 9.32171 14.2044 9.25868 14.0788 9.2235C13.8276 9.15501 13.5647 9.14054 13.3076 9.18104C13.0504 9.22155 12.8047 9.31611 12.5868 9.4585C12.3694 9.67775 12.229 9.96164 12.1868 10.2675C12.1868 10.3745 12.1868 10.3945 12.3138 10.3945H14.6838C14.8008 10.3945 14.8008 10.3945 14.7908 10.2475C14.7794 10.0638 14.73 9.88453 14.6448 9.7215ZM14.6448 9.7215C14.5939 9.60132 14.5156 9.49414 14.4176 9.40793C14.3196 9.32171 14.2044 9.25868 14.0788 9.2235C13.8276 9.15501 13.5637 9.14054 13.3066 9.18104C13.0494 9.22155 12.8047 9.31611 12.5868 9.4585C12.3694 9.67775 12.228 9.96164 12.1858 10.2675C12.1858 10.3745 12.1858 10.3945 12.3128 10.3945H14.6838C14.8008 10.3945 14.8008 10.3945 14.7908 10.2475C14.7794 10.0638 14.7283 9.88453 14.6428 9.7215M15.7558 0.3125H4.05576C3.02142 0.3125 2.02944 0.723392 1.29805 1.45478C0.566653 2.18618 0.155762 3.17816 0.155762 4.2125V15.9125C0.155762 16.9468 0.566653 17.9388 1.29805 18.6702C2.02944 19.4016 3.02142 19.8125 4.05576 19.8125H15.7558C16.7901 19.8125 17.7821 19.4016 18.5135 18.6702C19.2449 17.9388 19.6558 16.9468 19.6558 15.9125V4.2125C19.6558 3.17816 19.2449 2.18618 18.5135 1.45478C17.7821 0.723392 16.7901 0.3125 15.7558 0.3125ZM11.9338 6.5225C11.9338 6.4455 11.9338 6.4155 12.0218 6.4155H15.1808V7.2355C15.1808 7.2355 15.1838 7.2935 15.1318 7.2935H12.0708C11.9338 7.2935 11.9338 7.2935 11.9338 7.1575V6.5225ZM9.00876 13.6895C7.80876 14.3425 5.79176 14.0795 3.40276 14.0795V5.9965H7.21476C8.18976 5.9965 9.34976 6.2405 9.66176 7.2735C9.82377 7.72468 9.81391 8.21973 9.63406 8.6641C9.45421 9.10847 9.11697 9.47101 8.68676 9.6825C9.08331 9.82925 9.42952 10.0865 9.68442 10.4239C9.93931 10.7613 10.0922 11.1646 10.125 11.5862C10.1579 12.0077 10.0692 12.4299 9.86964 12.8026C9.67003 13.1754 9.36782 13.4831 8.99876 13.6895H9.00876ZM16.2728 11.3885H12.3728C12.2658 11.3885 12.1678 11.4465 12.1868 11.5835C12.3038 12.1585 12.5668 12.7635 13.1628 12.8515C13.4775 12.9446 13.8143 12.93 14.1197 12.8098C14.4252 12.6897 14.6818 12.4711 14.8488 12.1885C14.8488 12.1885 14.8978 12.1295 14.9268 12.1295H16.1948C16.1948 12.1295 16.2728 12.1295 16.2528 12.1975C16.12 12.5766 15.922 12.9295 15.6678 13.2405C15.3288 13.564 14.9198 13.8051 14.4726 13.9451C14.0254 14.085 13.552 14.1201 13.0891 14.0476C12.6261 13.9751 12.1861 13.7969 11.8031 13.5268C11.4202 13.2568 11.1046 12.9022 10.8808 12.4905C10.7424 12.2162 10.6566 11.9184 10.6278 11.6125C10.4538 10.8441 10.5868 10.0381 10.9983 9.36629C11.4097 8.69444 12.0672 8.20977 12.8308 8.0155C15.0438 7.5375 16.4478 9.0585 16.4478 11.2035C16.451 11.2286 16.4485 11.2541 16.4404 11.278C16.4322 11.3019 16.4187 11.3237 16.4008 11.3416C16.3829 11.3594 16.3612 11.373 16.3373 11.3811C16.3133 11.3893 16.2878 11.3918 16.2628 11.3885H16.2728ZM14.0888 9.2235C13.8376 9.15522 13.5748 9.1409 13.3178 9.1815C13.0608 9.2215 12.8308 9.2705 12.5968 9.4585C12.3628 9.6455 12.2388 9.9615 12.1968 10.2675C12.1968 10.3745 12.1968 10.3945 12.3238 10.3945H14.6838C14.8008 10.3945 14.8008 10.3945 14.7908 10.2475C14.7794 10.0638 14.73 9.88453 14.6448 9.7215Z" fill="#0097CB"/>
</svg>

