<svg width="24" height="24" viewBox="0 0 24 24" fill="none" xmlns="http://www.w3.org/2000/svg">
<path d="M20.01 5.89349C19.9469 5.8428 19.8712 5.81023 19.791 5.79927C19.7108 5.7883 19.6292 5.79936 19.5548 5.83124L12.3098 8.96849C11.9948 9.10574 11.6003 9.17099 11.1953 9.17099C10.6305 9.17324 10.0463 9.04199 9.63902 8.86349C9.51491 8.81122 9.39674 8.74585 9.28652 8.66849C9.31652 8.65349 9.35402 8.63699 9.39527 8.62049L15.9848 5.76749L16.9673 6.18749V4.95974C16.9687 4.87219 16.9504 4.78543 16.9137 4.70595C16.8769 4.62647 16.8227 4.55632 16.755 4.50074C16.6922 4.45011 16.6167 4.41756 16.5368 4.40659C16.4568 4.39563 16.3754 4.40665 16.3013 4.43849L9.05627 7.57574C8.83277 7.66574 8.64077 7.77674 8.47877 7.93799C8.29117 8.12306 8.18463 8.37498 8.18252 8.63849C8.18252 8.64599 8.18477 8.65874 8.18477 8.65874V19.7062L8.18327 19.7212C8.18327 19.7242 8.18552 19.7257 8.18552 19.7287V19.7407H8.18702C8.20202 20.127 8.39702 20.373 8.58302 20.547C9.16802 21.063 10.1505 21.3517 11.196 21.3667C11.691 21.3667 12.1935 21.2917 12.6585 21.0922L19.9058 17.9542C20.097 17.8717 20.2223 17.667 20.2223 17.4352V6.35249C20.2234 6.26499 20.205 6.17834 20.1682 6.09891C20.1315 6.01948 20.0774 5.94928 20.01 5.89349ZM15.4148 3.79349C15.402 3.62849 15.3338 3.47099 15.2123 3.37649C15.1492 3.3258 15.0735 3.29324 14.9933 3.28227C14.9131 3.2713 14.8314 3.28236 14.757 3.31424L7.51202 6.44999C7.19702 6.58649 6.80177 6.65249 6.39752 6.65249C5.83277 6.65399 5.24852 6.52274 4.84127 6.34349C4.71704 6.29209 4.59883 6.2272 4.48877 6.14999C4.51877 6.13499 4.55627 6.11849 4.59752 6.10199L11.1878 3.24899L12.1703 3.66899V2.44274C12.1716 2.35513 12.1531 2.26836 12.1163 2.18888C12.0794 2.1094 12.025 2.03928 11.9573 1.98374C11.8943 1.93312 11.8187 1.90058 11.7386 1.88962C11.6586 1.87865 11.577 1.88967 11.5028 1.92149L4.25777 5.05949C4.03427 5.14949 3.84302 5.25974 3.68027 5.42174C3.49295 5.60694 3.38668 5.85884 3.38477 6.12224C3.38477 6.13124 3.38702 6.14324 3.38702 6.14324V17.226H3.38852C3.40352 17.6122 3.59852 17.8582 3.78452 18.0322C4.36952 18.5482 5.35202 18.8362 6.39827 18.8512C6.68239 18.8496 6.96561 18.8189 7.24352 18.7597V8.65799C7.23602 8.13299 7.44602 7.62899 7.81502 7.26599C8.07066 7.01801 8.37441 6.82504 8.70752 6.69899L15.4148 3.79349Z" fill="black"/>
</svg>
