<svg width="2379" height="3766" viewBox="0 0 2379 3766" fill="none" xmlns="http://www.w3.org/2000/svg">
<path d="M0 2773.79L115.113 2711.51L354.931 2730.67L1491.67 3573.83L1769.86 3650.48L1813.03 3612.15L1803.44 3545.08L1630.77 3372.62L1640.36 3248.06L1784.25 3204.95L2158.37 3569.03L2143.98 3588.2L1784.25 3248.06L1688.32 3286.39L1673.93 3348.66L1846.6 3521.13L1860.99 3597.78L1846.6 3645.69L1789.05 3698.38L1462.89 3612.15L359.728 2773.79L119.909 2745.04L0 2773.79Z" fill="#FF1F00"/>
<path d="M0 0L604.343 498.228L959.274 1053.94L1271.04 1374.92L1060 1231.2L1127.15 1327.01L1213.48 1652.78L1390.95 1863.56L1400.54 1940.22L1597.19 2189.33L1501.26 2117.47L1616.38 2395.33L1937.73 2735.46L1813.03 2649.23L1889.77 2850.44L2100.81 3022.9L2283.07 3588.2L2225.52 3636.11L2379 3765.45V3573.83L2014.48 2337.84L1750.68 1695.89L1597.19 1446.78L1793.84 1734.22L2115.2 2467.19L2230.31 2994.16L2350.22 2658.81L2331.04 2433.65L2287.87 2395.33L2230.31 2433.65L2287.87 2289.93L2263.89 2122.26L2163.16 2050.4L2177.55 1935.42L2124.79 1839.61L1937.73 1619.24L1856.2 1384.5L1837.01 1542.59L1731.49 1192.87L738.641 392.834L191.855 81.4411L0 0Z" fill="#FF1F00"/>
</svg>
