<?xml version="1.0" encoding="utf-8"?>
<!-- Generator: Adobe Illustrator 24.2.3, SVG Export Plug-In . SVG Version: 6.00 Build 0)  -->
<svg version="1.1" id="Layer_1" xmlns="http://www.w3.org/2000/svg" xmlns:xlink="http://www.w3.org/1999/xlink" x="0px" y="0px"
	 viewBox="0 0 752.1 533.7" style="enable-background:new 0 0 752.1 533.7;" xml:space="preserve">
<style type="text/css">
	.st0{fill:#009BCD;}
	.st1{fill:#0097CB;}
</style>
<g>
	<path class="st0" d="M352.5,200.3H5c-2.8,0-5-2.2-5-5L0,83.3c0-2.8,2.2-5,5-5h347.5c2.8,0,5,2.2,5,5v111.9
		C357.5,198,355.2,200.3,352.5,200.3z"/>
	<path class="st0" d="M235.5,362V83.3c0-2.8,2.2-5,5-5h111.9c2.8,0,5,2.2,5,5V362c0,2.8-2.2,5-5,5H240.5
		C237.8,367,235.5,364.7,235.5,362z"/>
	<path class="st0" d="M0,528.7L0,250c0-2.8,2.2-5,5-5h111.9c2.8,0,5,2.2,5,5v278.6c0,2.8-2.2,5-5,5H5C2.2,533.7,0,531.4,0,528.7z"/>
	<path class="st0" d="M630.2,528.7V83.3c0-2.8,2.2-5,5-5h111.9c2.8,0,5,2.2,5,5v445.4c0,2.8-2.2,5-5,5H635.2
		C632.4,533.7,630.2,531.4,630.2,528.7z"/>
	<path class="st0" d="M352.5,367H5c-2.8,0-5-2.2-5-5L0,250c0-2.8,2.2-5,5-5h347.5c2.8,0,5,2.2,5,5V362
		C357.5,364.7,355.2,367,352.5,367z"/>
	<path class="st0" d="M747.1,200.3H399.6c-2.8,0-5-2.2-5-5V83.3c0-2.8,2.2-5,5-5h347.5c2.8,0,5,2.2,5,5v111.9
		C752.1,198,749.9,200.3,747.1,200.3z"/>
	<path class="st0" d="M747.1,533.7H5c-2.8,0-5-2.2-5-5l0-111.9c0-2.8,2.2-5,5-5h742.1c2.8,0,5,2.2,5,5v111.9
		C752.1,531.5,749.9,533.7,747.1,533.7z"/>
	<path class="st0" d="M747.1,367H399.6c-2.8,0-5-2.2-5-5V250c0-2.8,2.2-5,5-5h347.5c2.8,0,5,2.2,5,5V362
		C752.1,364.7,749.9,367,747.1,367z"/>
	<path class="st0" d="M747.1,533.7H399.6c-2.8,0-5-2.2-5-5V416.7c0-2.8,2.2-5,5-5h347.5c2.8,0,5,2.2,5,5v111.9
		C752.1,531.4,749.9,533.7,747.1,533.7z"/>
	<g>
		<path class="st1" d="M11.3,14.5c0,2.5,1.3,3.8,3.8,3.8h11.3c4.1,0,7.1,0.9,9,2.8c1.9,1.9,2.9,4.9,2.9,8.9v3.1c0,4-1,7-2.9,8.9
			c-1.9,1.9-4.9,2.8-9,2.8c-1.3,0-2.6,0-4,0c-1.4,0-2.8,0-4.3,0c-1.4,0-2.9,0-4.3,0c-1.4,0-2.8,0-4.1,0c-3.1,0-6.1-0.3-9.1-0.8v-8
			c3.1,0,6,0,8.9,0c2.5,0,5,0,7.7,0s4.9,0,6.7,0c1,0,1.7-0.3,2.3-0.8c0.6-0.5,0.8-1.3,0.8-2.2v-5.3H12.6c-4.4,0-7.6-1-9.6-3
			c-2-2-3-5.2-3-9.6v-1.9c0-4.4,1-7.6,3-9.6c2-2,5.2-3,9.6-3h22.1v8.8H15.1c-2.5,0-3.8,1.3-3.8,3.8V14.5z"/>
		<path class="st1" d="M86.1,44.6H74.8V9.4H61.6V0.6h37.7v8.8H86.1V44.6z"/>
		<path class="st1" d="M155.8,0.6h11.3v32c0,4.4-1,7.6-3,9.6c-2,2-5.2,3-9.6,3h-14.5c-4.4,0-7.6-1-9.6-3s-3-5.2-3-9.6v-32h11.3v32
			c0,2.5,1.3,3.8,3.8,3.8h9.4c2.5,0,3.8-1.3,3.8-3.8V0.6z"/>
		<path class="st1" d="M223,0.6c4.7,0,8.3,1.2,10.8,3.7c2.4,2.5,3.7,6,3.7,10.8v15.1c0,4.7-1.2,8.3-3.7,10.8
			c-2.4,2.4-6,3.7-10.8,3.7h-24.5v-44H223z M226.2,15.1c0-3.8-1.9-5.7-5.7-5.7h-10.7v26.4h10.7c3.8,0,5.7-1.9,5.7-5.7V15.1z"/>
		<path class="st1" d="M288.4,44.6h-22.6v-8.8h5.7V9.4h-5.7V0.6h22.6v8.8h-5.7v26.4h5.7V44.6z"/>
		<path class="st1" d="M357.5,32.7c0,4.4-1,7.6-3,9.6c-2,2-5.2,3-9.6,3h-15.7c-4.4,0-7.6-1-9.6-3c-2-2-3-5.2-3-9.6V12.6
			c0-4.4,1-7.6,3-9.6c2-2,5.2-3,9.6-3h15.7c4.4,0,7.6,1,9.6,3c2,2,3,5.2,3,9.6V32.7z M346.2,12.6c0-2.5-1.3-3.8-3.8-3.8h-10.7
			c-2.5,0-3.8,1.3-3.8,3.8v20.1c0,2.5,1.3,3.8,3.8,3.8h10.7c2.5,0,3.8-1.3,3.8-3.8V12.6z"/>
	</g>
</g>
</svg>
